<?xml version="1.0" encoding="UTF-8" standalone="no"?><!DOCTYPE svg PUBLIC "-//W3C//DTD SVG 1.1//EN" "http://www.w3.org/Graphics/SVG/1.1/DTD/svg11.dtd"><svg width="100%" height="100%" viewBox="0 0 24 24" version="1.1" xmlns="http://www.w3.org/2000/svg" xmlns:xlink="http://www.w3.org/1999/xlink" xml:space="preserve" style="fill-rule:evenodd;clip-rule:evenodd;stroke-linejoin:round;stroke-miterlimit:1.41421;"><path d="M23,7l0,-6l-6,0l0,2l-7.674,2.463l0,-2l-6,0l0,6l2,0l-2.326,7.537l-2,0l0,6l6,0l0,-2l10,0l0,2l6,0l0,-6l-2,0l0,-10l2,0Zm-17.674,-1.537l2,0l0,2l-2,0l0,-2Zm-0.326,15.537l-2,0l0,-2l2,0l0,2Zm12,-2l-10,0l0,-2l-2,0l2.326,-7.537l2,0l0,-2l7.674,-2.463l0,2l2,0l0,10l-2,0l0,2Zm4,2l-2,0l0,-2l2,0l0,2Zm-2,-16l0,-2l2,0l0,2l-2,0Z" style="fill-rule:nonzero;"/><path d="M0,0l24,0l0,24l-24,0l0,-24Z" style="fill:none;"/></svg>